<mxfile host="app.diagrams.net" agent="Mozilla/5.0 (Macintosh; Intel Mac OS X 10_15_7) AppleWebKit/537.36 (KHTML, like Gecko) Chrome/136.0.0.0 Safari/537.36" version="27.1.4">
  <diagram name="Page-1" id="Xoc5ThBdiQqUHGEQeKQj">
    <mxGraphModel dx="3074" dy="1091" grid="1" gridSize="10" guides="1" tooltips="1" connect="1" arrows="1" fold="1" page="1" pageScale="1" pageWidth="827" pageHeight="1169" math="0" shadow="0">
      <root>
        <mxCell id="0" />
        <mxCell id="1" parent="0" />
        <mxCell id="hBEw3QQNNBVb0nGFm_RE-2" value="&lt;h1 style=&quot;margin-top: 0px;&quot;&gt;FR&lt;/h1&gt;&lt;div&gt;1. Add product to inventory&lt;/div&gt;&lt;div&gt;2. Add a customer&lt;/div&gt;&lt;div&gt;3. Remove product from inventory&lt;/div&gt;&lt;div&gt;4. Record that a product is rented to a customer&lt;/div&gt;&lt;div&gt;5. Create a charge for the customer&lt;/div&gt;&lt;div&gt;&lt;br&gt;&lt;/div&gt;&lt;div&gt;Queries&lt;/div&gt;&lt;div&gt;1. No of small bikes&lt;/div&gt;&lt;div&gt;2. what products are there for rent?&lt;/div&gt;&lt;div&gt;3. Does customer have balance&lt;/div&gt;&lt;div&gt;4. What products are rented&lt;/div&gt;&lt;div&gt;5. Are there products that are overdue for return? Who has them?&lt;/div&gt;&lt;div&gt;6. What products has a customer rented?&lt;/div&gt;" style="text;html=1;whiteSpace=wrap;overflow=hidden;rounded=0;" parent="1" vertex="1">
          <mxGeometry x="230" y="20" width="350" height="270" as="geometry" />
        </mxCell>
        <mxCell id="hBEw3QQNNBVb0nGFm_RE-7" value="VehicleManagementService" style="swimlane;fontStyle=1;align=center;verticalAlign=top;childLayout=stackLayout;horizontal=1;startSize=30;horizontalStack=0;resizeParent=1;resizeParentMax=0;resizeLast=0;collapsible=1;marginBottom=0;whiteSpace=wrap;html=1;" parent="1" vertex="1">
          <mxGeometry x="360" y="410" width="200" height="304" as="geometry" />
        </mxCell>
        <mxCell id="hBEw3QQNNBVb0nGFm_RE-8" value="- instance : InventoryManagementService&lt;div&gt;- inventoryList : List&amp;lt;Vehicle&amp;gt;&lt;/div&gt;&lt;div&gt;&lt;br&gt;&lt;div&gt;&lt;br&gt;&lt;/div&gt;&lt;/div&gt;" style="text;strokeColor=none;fillColor=none;align=left;verticalAlign=top;spacingLeft=4;spacingRight=4;overflow=hidden;rotatable=0;points=[[0,0.5],[1,0.5]];portConstraint=eastwest;whiteSpace=wrap;html=1;" parent="hBEw3QQNNBVb0nGFm_RE-7" vertex="1">
          <mxGeometry y="30" width="200" height="84" as="geometry" />
        </mxCell>
        <mxCell id="hBEw3QQNNBVb0nGFm_RE-9" value="" style="line;strokeWidth=1;fillColor=none;align=left;verticalAlign=middle;spacingTop=-1;spacingLeft=3;spacingRight=3;rotatable=0;labelPosition=right;points=[];portConstraint=eastwest;strokeColor=inherit;" parent="hBEw3QQNNBVb0nGFm_RE-7" vertex="1">
          <mxGeometry y="114" width="200" height="8" as="geometry" />
        </mxCell>
        <mxCell id="hBEw3QQNNBVb0nGFm_RE-10" value="- VehicleManagementService(): void&lt;div&gt;+ getInstance(): VehicleManagementService&lt;/div&gt;&lt;div&gt;+ addInventory(Vehicle vehicle): Boolean&lt;/div&gt;&lt;div&gt;+ removeInventory(String id) : Boolean&lt;/div&gt;&lt;div&gt;+ getAllIVehicle(): List&amp;lt;Vehicle&amp;gt;&lt;/div&gt;" style="text;strokeColor=none;fillColor=none;align=left;verticalAlign=top;spacingLeft=4;spacingRight=4;overflow=hidden;rotatable=0;points=[[0,0.5],[1,0.5]];portConstraint=eastwest;whiteSpace=wrap;html=1;" parent="hBEw3QQNNBVb0nGFm_RE-7" vertex="1">
          <mxGeometry y="122" width="200" height="182" as="geometry" />
        </mxCell>
        <mxCell id="hBEw3QQNNBVb0nGFm_RE-11" value="Vehicle" style="swimlane;fontStyle=1;align=center;verticalAlign=top;childLayout=stackLayout;horizontal=1;startSize=26;horizontalStack=0;resizeParent=1;resizeParentMax=0;resizeLast=0;collapsible=1;marginBottom=0;whiteSpace=wrap;html=1;" parent="1" vertex="1">
          <mxGeometry y="410" width="160" height="134" as="geometry" />
        </mxCell>
        <mxCell id="hBEw3QQNNBVb0nGFm_RE-12" value="- id:UUID&lt;div&gt;&lt;span style=&quot;background-color: transparent; color: light-dark(rgb(0, 0, 0), rgb(255, 255, 255));&quot;&gt;- vehicleNumber: String&lt;/span&gt;&lt;/div&gt;&lt;div&gt;- productType: ProductType&lt;/div&gt;&lt;div&gt;- pricePerDay: int&lt;/div&gt;" style="text;strokeColor=none;fillColor=none;align=left;verticalAlign=top;spacingLeft=4;spacingRight=4;overflow=hidden;rotatable=0;points=[[0,0.5],[1,0.5]];portConstraint=eastwest;whiteSpace=wrap;html=1;" parent="hBEw3QQNNBVb0nGFm_RE-11" vertex="1">
          <mxGeometry y="26" width="160" height="74" as="geometry" />
        </mxCell>
        <mxCell id="hBEw3QQNNBVb0nGFm_RE-13" value="" style="line;strokeWidth=1;fillColor=none;align=left;verticalAlign=middle;spacingTop=-1;spacingLeft=3;spacingRight=3;rotatable=0;labelPosition=right;points=[];portConstraint=eastwest;strokeColor=inherit;" parent="hBEw3QQNNBVb0nGFm_RE-11" vertex="1">
          <mxGeometry y="100" width="160" height="8" as="geometry" />
        </mxCell>
        <mxCell id="hBEw3QQNNBVb0nGFm_RE-14" value="+ Inventory()&amp;nbsp;&lt;div&gt;&lt;br&gt;&lt;/div&gt;" style="text;strokeColor=none;fillColor=none;align=left;verticalAlign=top;spacingLeft=4;spacingRight=4;overflow=hidden;rotatable=0;points=[[0,0.5],[1,0.5]];portConstraint=eastwest;whiteSpace=wrap;html=1;" parent="hBEw3QQNNBVb0nGFm_RE-11" vertex="1">
          <mxGeometry y="108" width="160" height="26" as="geometry" />
        </mxCell>
        <mxCell id="hBEw3QQNNBVb0nGFm_RE-15" value="UserManagementService" style="swimlane;fontStyle=1;align=center;verticalAlign=top;childLayout=stackLayout;horizontal=1;startSize=26;horizontalStack=0;resizeParent=1;resizeParentMax=0;resizeLast=0;collapsible=1;marginBottom=0;whiteSpace=wrap;html=1;" parent="1" vertex="1">
          <mxGeometry x="340" y="880" width="220" height="240" as="geometry" />
        </mxCell>
        <mxCell id="hBEw3QQNNBVb0nGFm_RE-16" value="- instance: UserManagementService&lt;div&gt;- usersList: List&amp;lt;User&amp;gt;&lt;/div&gt;" style="text;strokeColor=none;fillColor=none;align=left;verticalAlign=top;spacingLeft=4;spacingRight=4;overflow=hidden;rotatable=0;points=[[0,0.5],[1,0.5]];portConstraint=eastwest;whiteSpace=wrap;html=1;" parent="hBEw3QQNNBVb0nGFm_RE-15" vertex="1">
          <mxGeometry y="26" width="220" height="84" as="geometry" />
        </mxCell>
        <mxCell id="hBEw3QQNNBVb0nGFm_RE-17" value="" style="line;strokeWidth=1;fillColor=none;align=left;verticalAlign=middle;spacingTop=-1;spacingLeft=3;spacingRight=3;rotatable=0;labelPosition=right;points=[];portConstraint=eastwest;strokeColor=inherit;" parent="hBEw3QQNNBVb0nGFm_RE-15" vertex="1">
          <mxGeometry y="110" width="220" height="8" as="geometry" />
        </mxCell>
        <mxCell id="hBEw3QQNNBVb0nGFm_RE-18" value="- UserManagementService(): void&lt;div&gt;+ getInstance(): UserManagementService&lt;/div&gt;&lt;div&gt;+ addUser(User user): Boolean&lt;/div&gt;&lt;div&gt;+ deductBalance(String userId, Double amount): boolean&lt;/div&gt;&lt;div&gt;&lt;br&gt;&lt;/div&gt;" style="text;strokeColor=none;fillColor=none;align=left;verticalAlign=top;spacingLeft=4;spacingRight=4;overflow=hidden;rotatable=0;points=[[0,0.5],[1,0.5]];portConstraint=eastwest;whiteSpace=wrap;html=1;" parent="hBEw3QQNNBVb0nGFm_RE-15" vertex="1">
          <mxGeometry y="118" width="220" height="122" as="geometry" />
        </mxCell>
        <mxCell id="hBEw3QQNNBVb0nGFm_RE-19" value="User" style="swimlane;fontStyle=1;align=center;verticalAlign=top;childLayout=stackLayout;horizontal=1;startSize=43;horizontalStack=0;resizeParent=1;resizeParentMax=0;resizeLast=0;collapsible=1;marginBottom=0;whiteSpace=wrap;html=1;" parent="1" vertex="1">
          <mxGeometry x="-10" y="896.5" width="160" height="190" as="geometry" />
        </mxCell>
        <mxCell id="hBEw3QQNNBVb0nGFm_RE-20" value="- userId: UUID&lt;div&gt;- userName: String&lt;/div&gt;&lt;div&gt;- balance : Double&lt;/div&gt;" style="text;strokeColor=none;fillColor=none;align=left;verticalAlign=top;spacingLeft=4;spacingRight=4;overflow=hidden;rotatable=0;points=[[0,0.5],[1,0.5]];portConstraint=eastwest;whiteSpace=wrap;html=1;" parent="hBEw3QQNNBVb0nGFm_RE-19" vertex="1">
          <mxGeometry y="43" width="160" height="47" as="geometry" />
        </mxCell>
        <mxCell id="hBEw3QQNNBVb0nGFm_RE-21" value="" style="line;strokeWidth=1;fillColor=none;align=left;verticalAlign=middle;spacingTop=-1;spacingLeft=3;spacingRight=3;rotatable=0;labelPosition=right;points=[];portConstraint=eastwest;strokeColor=inherit;" parent="hBEw3QQNNBVb0nGFm_RE-19" vertex="1">
          <mxGeometry y="90" width="160" height="8" as="geometry" />
        </mxCell>
        <mxCell id="hBEw3QQNNBVb0nGFm_RE-22" value="+ User()&lt;div&gt;&lt;br&gt;&lt;/div&gt;" style="text;strokeColor=none;fillColor=none;align=left;verticalAlign=top;spacingLeft=4;spacingRight=4;overflow=hidden;rotatable=0;points=[[0,0.5],[1,0.5]];portConstraint=eastwest;whiteSpace=wrap;html=1;" parent="hBEw3QQNNBVb0nGFm_RE-19" vertex="1">
          <mxGeometry y="98" width="160" height="92" as="geometry" />
        </mxCell>
        <mxCell id="hBEw3QQNNBVb0nGFm_RE-23" value="" style="endArrow=diamondThin;endFill=0;endSize=24;html=1;rounded=0;entryX=1;entryY=0.5;entryDx=0;entryDy=0;" parent="1" target="hBEw3QQNNBVb0nGFm_RE-12" edge="1">
          <mxGeometry width="160" relative="1" as="geometry">
            <mxPoint x="360" y="473" as="sourcePoint" />
            <mxPoint x="550" y="437" as="targetPoint" />
          </mxGeometry>
        </mxCell>
        <mxCell id="hBEw3QQNNBVb0nGFm_RE-24" value="has-a" style="edgeLabel;html=1;align=center;verticalAlign=middle;resizable=0;points=[];" parent="hBEw3QQNNBVb0nGFm_RE-23" vertex="1" connectable="0">
          <mxGeometry x="-0.0401" y="-1" relative="1" as="geometry">
            <mxPoint as="offset" />
          </mxGeometry>
        </mxCell>
        <mxCell id="hBEw3QQNNBVb0nGFm_RE-29" value="BookingManagementService" style="swimlane;fontStyle=1;align=center;verticalAlign=top;childLayout=stackLayout;horizontal=1;startSize=30;horizontalStack=0;resizeParent=1;resizeParentMax=0;resizeLast=0;collapsible=1;marginBottom=0;whiteSpace=wrap;html=1;" parent="1" vertex="1">
          <mxGeometry x="790" y="610" width="160" height="390" as="geometry" />
        </mxCell>
        <mxCell id="hBEw3QQNNBVb0nGFm_RE-30" value="- instance: BookingManagementService&lt;div&gt;- bookings: List&amp;lt;Booking&amp;gt;&lt;/div&gt;&lt;div&gt;-userManagementService: UserManagementService&lt;br&gt;-InventoryManagementService: InventoryMangementService&lt;/div&gt;" style="text;strokeColor=none;fillColor=none;align=left;verticalAlign=top;spacingLeft=4;spacingRight=4;overflow=hidden;rotatable=0;points=[[0,0.5],[1,0.5]];portConstraint=eastwest;whiteSpace=wrap;html=1;" parent="hBEw3QQNNBVb0nGFm_RE-29" vertex="1">
          <mxGeometry y="30" width="160" height="150" as="geometry" />
        </mxCell>
        <mxCell id="hBEw3QQNNBVb0nGFm_RE-31" value="" style="line;strokeWidth=1;fillColor=none;align=left;verticalAlign=middle;spacingTop=-1;spacingLeft=3;spacingRight=3;rotatable=0;labelPosition=right;points=[];portConstraint=eastwest;strokeColor=inherit;" parent="hBEw3QQNNBVb0nGFm_RE-29" vertex="1">
          <mxGeometry y="180" width="160" height="8" as="geometry" />
        </mxCell>
        <mxCell id="hBEw3QQNNBVb0nGFm_RE-32" value="- BookingManagementService(): void&lt;div&gt;+ getInstance(): BookingManagementService&lt;/div&gt;&lt;div&gt;+ book(BookingDto bookingDto): Boolean&lt;/div&gt;&lt;div&gt;+ availablility(BookingDto bookingDto) : Boolean&lt;/div&gt;&lt;div&gt;+ createCharge(UUID bookingId): Ticket&lt;/div&gt;&lt;div&gt;+ getAllAvailableVehicles: AvailableVehicleSummary&lt;/div&gt;" style="text;strokeColor=none;fillColor=none;align=left;verticalAlign=top;spacingLeft=4;spacingRight=4;overflow=hidden;rotatable=0;points=[[0,0.5],[1,0.5]];portConstraint=eastwest;whiteSpace=wrap;html=1;" parent="hBEw3QQNNBVb0nGFm_RE-29" vertex="1">
          <mxGeometry y="188" width="160" height="202" as="geometry" />
        </mxCell>
        <mxCell id="hBEw3QQNNBVb0nGFm_RE-33" value="Booking" style="swimlane;fontStyle=1;align=center;verticalAlign=top;childLayout=stackLayout;horizontal=1;startSize=26;horizontalStack=0;resizeParent=1;resizeParentMax=0;resizeLast=0;collapsible=1;marginBottom=0;whiteSpace=wrap;html=1;" parent="1" vertex="1">
          <mxGeometry x="1180" y="670" width="160" height="194" as="geometry" />
        </mxCell>
        <mxCell id="hBEw3QQNNBVb0nGFm_RE-34" value="- bookingId: UUID&lt;div&gt;- inventoryId: UUID&lt;br&gt;&lt;div&gt;-userId: UUID&lt;/div&gt;&lt;div&gt;- bookedAt: Date&lt;/div&gt;&lt;div&gt;- bookedFrom: Date&lt;/div&gt;&lt;div&gt;- bookedTo: Date&lt;/div&gt;&lt;/div&gt;&lt;div&gt;- bookingStatus: BookingStatus&lt;/div&gt;&lt;div&gt;- updatedAt&lt;/div&gt;" style="text;strokeColor=none;fillColor=none;align=left;verticalAlign=top;spacingLeft=4;spacingRight=4;overflow=hidden;rotatable=0;points=[[0,0.5],[1,0.5]];portConstraint=eastwest;whiteSpace=wrap;html=1;" parent="hBEw3QQNNBVb0nGFm_RE-33" vertex="1">
          <mxGeometry y="26" width="160" height="134" as="geometry" />
        </mxCell>
        <mxCell id="hBEw3QQNNBVb0nGFm_RE-35" value="" style="line;strokeWidth=1;fillColor=none;align=left;verticalAlign=middle;spacingTop=-1;spacingLeft=3;spacingRight=3;rotatable=0;labelPosition=right;points=[];portConstraint=eastwest;strokeColor=inherit;" parent="hBEw3QQNNBVb0nGFm_RE-33" vertex="1">
          <mxGeometry y="160" width="160" height="8" as="geometry" />
        </mxCell>
        <mxCell id="hBEw3QQNNBVb0nGFm_RE-36" value="+ Booking()" style="text;strokeColor=none;fillColor=none;align=left;verticalAlign=top;spacingLeft=4;spacingRight=4;overflow=hidden;rotatable=0;points=[[0,0.5],[1,0.5]];portConstraint=eastwest;whiteSpace=wrap;html=1;" parent="hBEw3QQNNBVb0nGFm_RE-33" vertex="1">
          <mxGeometry y="168" width="160" height="26" as="geometry" />
        </mxCell>
        <mxCell id="hBEw3QQNNBVb0nGFm_RE-37" value="" style="endArrow=diamondThin;endFill=0;endSize=24;html=1;rounded=0;exitX=1;exitY=0.5;exitDx=0;exitDy=0;entryX=0;entryY=0.5;entryDx=0;entryDy=0;" parent="1" source="hBEw3QQNNBVb0nGFm_RE-30" target="hBEw3QQNNBVb0nGFm_RE-34" edge="1">
          <mxGeometry width="160" relative="1" as="geometry">
            <mxPoint x="610" y="740" as="sourcePoint" />
            <mxPoint x="770" y="740" as="targetPoint" />
          </mxGeometry>
        </mxCell>
        <mxCell id="hBEw3QQNNBVb0nGFm_RE-38" value="has-a" style="edgeLabel;html=1;align=center;verticalAlign=middle;resizable=0;points=[];" parent="hBEw3QQNNBVb0nGFm_RE-37" vertex="1" connectable="0">
          <mxGeometry x="0.005" y="-2" relative="1" as="geometry">
            <mxPoint as="offset" />
          </mxGeometry>
        </mxCell>
        <mxCell id="hBEw3QQNNBVb0nGFm_RE-39" value="" style="endArrow=diamondThin;endFill=0;endSize=24;html=1;rounded=0;entryX=1.023;entryY=0.16;entryDx=0;entryDy=0;exitX=0;exitY=0.5;exitDx=0;exitDy=0;entryPerimeter=0;" parent="1" source="hBEw3QQNNBVb0nGFm_RE-16" target="hBEw3QQNNBVb0nGFm_RE-20" edge="1">
          <mxGeometry width="160" relative="1" as="geometry">
            <mxPoint x="420" y="740" as="sourcePoint" />
            <mxPoint x="580" y="740" as="targetPoint" />
          </mxGeometry>
        </mxCell>
        <mxCell id="hBEw3QQNNBVb0nGFm_RE-40" value="has-a" style="edgeLabel;html=1;align=center;verticalAlign=middle;resizable=0;points=[];" parent="hBEw3QQNNBVb0nGFm_RE-39" vertex="1" connectable="0">
          <mxGeometry x="0.0624" y="-1" relative="1" as="geometry">
            <mxPoint as="offset" />
          </mxGeometry>
        </mxCell>
        <mxCell id="hBEw3QQNNBVb0nGFm_RE-41" value="" style="endArrow=diamondThin;endFill=0;endSize=24;html=1;rounded=0;entryX=1;entryY=0.5;entryDx=0;entryDy=0;exitX=-0.006;exitY=0.049;exitDx=0;exitDy=0;exitPerimeter=0;" parent="1" source="hBEw3QQNNBVb0nGFm_RE-29" target="hBEw3QQNNBVb0nGFm_RE-8" edge="1">
          <mxGeometry width="160" relative="1" as="geometry">
            <mxPoint x="590" y="730" as="sourcePoint" />
            <mxPoint x="750" y="730" as="targetPoint" />
          </mxGeometry>
        </mxCell>
        <mxCell id="hBEw3QQNNBVb0nGFm_RE-42" value="has-a" style="edgeLabel;html=1;align=center;verticalAlign=middle;resizable=0;points=[];" parent="hBEw3QQNNBVb0nGFm_RE-41" vertex="1" connectable="0">
          <mxGeometry x="0.06" relative="1" as="geometry">
            <mxPoint as="offset" />
          </mxGeometry>
        </mxCell>
        <mxCell id="hBEw3QQNNBVb0nGFm_RE-43" value="" style="endArrow=diamondThin;endFill=0;endSize=24;html=1;rounded=0;entryX=0.995;entryY=0.097;entryDx=0;entryDy=0;entryPerimeter=0;" parent="1" target="hBEw3QQNNBVb0nGFm_RE-15" edge="1">
          <mxGeometry width="160" relative="1" as="geometry">
            <mxPoint x="790" y="630" as="sourcePoint" />
            <mxPoint x="750" y="730" as="targetPoint" />
          </mxGeometry>
        </mxCell>
        <mxCell id="hBEw3QQNNBVb0nGFm_RE-44" value="has-a" style="edgeLabel;html=1;align=center;verticalAlign=middle;resizable=0;points=[];" parent="hBEw3QQNNBVb0nGFm_RE-43" vertex="1" connectable="0">
          <mxGeometry x="-0.0124" y="-3" relative="1" as="geometry">
            <mxPoint y="-1" as="offset" />
          </mxGeometry>
        </mxCell>
        <mxCell id="zNUPgAA341TsdGo00nmI-1" value="Bike" style="swimlane;fontStyle=1;align=center;verticalAlign=top;childLayout=stackLayout;horizontal=1;startSize=26;horizontalStack=0;resizeParent=1;resizeParentMax=0;resizeLast=0;collapsible=1;marginBottom=0;whiteSpace=wrap;html=1;" parent="1" vertex="1">
          <mxGeometry x="-150" y="650" width="160" height="134" as="geometry" />
        </mxCell>
        <mxCell id="zNUPgAA341TsdGo00nmI-2" value="&lt;div&gt;&lt;br&gt;&lt;/div&gt;&lt;div&gt;- bikeSize: BikeSize&lt;/div&gt;" style="text;strokeColor=none;fillColor=none;align=left;verticalAlign=top;spacingLeft=4;spacingRight=4;overflow=hidden;rotatable=0;points=[[0,0.5],[1,0.5]];portConstraint=eastwest;whiteSpace=wrap;html=1;" parent="zNUPgAA341TsdGo00nmI-1" vertex="1">
          <mxGeometry y="26" width="160" height="74" as="geometry" />
        </mxCell>
        <mxCell id="zNUPgAA341TsdGo00nmI-3" value="" style="line;strokeWidth=1;fillColor=none;align=left;verticalAlign=middle;spacingTop=-1;spacingLeft=3;spacingRight=3;rotatable=0;labelPosition=right;points=[];portConstraint=eastwest;strokeColor=inherit;" parent="zNUPgAA341TsdGo00nmI-1" vertex="1">
          <mxGeometry y="100" width="160" height="8" as="geometry" />
        </mxCell>
        <mxCell id="zNUPgAA341TsdGo00nmI-4" value="+ Bike()" style="text;strokeColor=none;fillColor=none;align=left;verticalAlign=top;spacingLeft=4;spacingRight=4;overflow=hidden;rotatable=0;points=[[0,0.5],[1,0.5]];portConstraint=eastwest;whiteSpace=wrap;html=1;" parent="zNUPgAA341TsdGo00nmI-1" vertex="1">
          <mxGeometry y="108" width="160" height="26" as="geometry" />
        </mxCell>
        <mxCell id="zNUPgAA341TsdGo00nmI-11" value="BookingDto" style="swimlane;fontStyle=1;align=center;verticalAlign=top;childLayout=stackLayout;horizontal=1;startSize=26;horizontalStack=0;resizeParent=1;resizeParentMax=0;resizeLast=0;collapsible=1;marginBottom=0;whiteSpace=wrap;html=1;" parent="1" vertex="1">
          <mxGeometry x="1241" y="370" width="160" height="144" as="geometry" />
        </mxCell>
        <mxCell id="zNUPgAA341TsdGo00nmI-12" value="- userId: UUID&lt;div&gt;- inventoryId: UUID&lt;/div&gt;&lt;div&gt;- bookingId: UUID&lt;/div&gt;&lt;div&gt;- start: LocalDateTime&lt;/div&gt;&lt;div&gt;- end: LocalDateTime&lt;/div&gt;" style="text;strokeColor=none;fillColor=none;align=left;verticalAlign=top;spacingLeft=4;spacingRight=4;overflow=hidden;rotatable=0;points=[[0,0.5],[1,0.5]];portConstraint=eastwest;whiteSpace=wrap;html=1;" parent="zNUPgAA341TsdGo00nmI-11" vertex="1">
          <mxGeometry y="26" width="160" height="84" as="geometry" />
        </mxCell>
        <mxCell id="zNUPgAA341TsdGo00nmI-13" value="" style="line;strokeWidth=1;fillColor=none;align=left;verticalAlign=middle;spacingTop=-1;spacingLeft=3;spacingRight=3;rotatable=0;labelPosition=right;points=[];portConstraint=eastwest;strokeColor=inherit;" parent="zNUPgAA341TsdGo00nmI-11" vertex="1">
          <mxGeometry y="110" width="160" height="8" as="geometry" />
        </mxCell>
        <mxCell id="zNUPgAA341TsdGo00nmI-14" value="+ method(type): type" style="text;strokeColor=none;fillColor=none;align=left;verticalAlign=top;spacingLeft=4;spacingRight=4;overflow=hidden;rotatable=0;points=[[0,0.5],[1,0.5]];portConstraint=eastwest;whiteSpace=wrap;html=1;" parent="zNUPgAA341TsdGo00nmI-11" vertex="1">
          <mxGeometry y="118" width="160" height="26" as="geometry" />
        </mxCell>
        <mxCell id="GeMPi5UEZmiX4pXkUo5c-2" value="Scooter" style="swimlane;fontStyle=1;align=center;verticalAlign=top;childLayout=stackLayout;horizontal=1;startSize=26;horizontalStack=0;resizeParent=1;resizeParentMax=0;resizeLast=0;collapsible=1;marginBottom=0;whiteSpace=wrap;html=1;" parent="1" vertex="1">
          <mxGeometry x="100" y="650" width="160" height="134" as="geometry" />
        </mxCell>
        <mxCell id="GeMPi5UEZmiX4pXkUo5c-3" value="&lt;div&gt;&lt;br&gt;&lt;/div&gt;&lt;div&gt;- scooterType: ScooterType&lt;/div&gt;" style="text;strokeColor=none;fillColor=none;align=left;verticalAlign=top;spacingLeft=4;spacingRight=4;overflow=hidden;rotatable=0;points=[[0,0.5],[1,0.5]];portConstraint=eastwest;whiteSpace=wrap;html=1;" parent="GeMPi5UEZmiX4pXkUo5c-2" vertex="1">
          <mxGeometry y="26" width="160" height="74" as="geometry" />
        </mxCell>
        <mxCell id="GeMPi5UEZmiX4pXkUo5c-4" value="" style="line;strokeWidth=1;fillColor=none;align=left;verticalAlign=middle;spacingTop=-1;spacingLeft=3;spacingRight=3;rotatable=0;labelPosition=right;points=[];portConstraint=eastwest;strokeColor=inherit;" parent="GeMPi5UEZmiX4pXkUo5c-2" vertex="1">
          <mxGeometry y="100" width="160" height="8" as="geometry" />
        </mxCell>
        <mxCell id="GeMPi5UEZmiX4pXkUo5c-5" value="+ Scooter()" style="text;strokeColor=none;fillColor=none;align=left;verticalAlign=top;spacingLeft=4;spacingRight=4;overflow=hidden;rotatable=0;points=[[0,0.5],[1,0.5]];portConstraint=eastwest;whiteSpace=wrap;html=1;" parent="GeMPi5UEZmiX4pXkUo5c-2" vertex="1">
          <mxGeometry y="108" width="160" height="26" as="geometry" />
        </mxCell>
        <mxCell id="GeMPi5UEZmiX4pXkUo5c-9" value="Extends" style="endArrow=block;endSize=16;endFill=0;html=1;rounded=0;exitX=0.5;exitY=0;exitDx=0;exitDy=0;entryX=0.47;entryY=1.158;entryDx=0;entryDy=0;entryPerimeter=0;" parent="1" source="zNUPgAA341TsdGo00nmI-1" target="hBEw3QQNNBVb0nGFm_RE-14" edge="1">
          <mxGeometry width="160" relative="1" as="geometry">
            <mxPoint x="530" y="760" as="sourcePoint" />
            <mxPoint x="690" y="760" as="targetPoint" />
          </mxGeometry>
        </mxCell>
        <mxCell id="GeMPi5UEZmiX4pXkUo5c-10" value="Extends" style="endArrow=block;endSize=16;endFill=0;html=1;rounded=0;exitX=0.5;exitY=0;exitDx=0;exitDy=0;" parent="1" source="GeMPi5UEZmiX4pXkUo5c-2" edge="1">
          <mxGeometry width="160" relative="1" as="geometry">
            <mxPoint x="530" y="760" as="sourcePoint" />
            <mxPoint x="80" y="550" as="targetPoint" />
          </mxGeometry>
        </mxCell>
        <mxCell id="GeMPi5UEZmiX4pXkUo5c-11" value="&lt;font style=&quot;font-size: 24px;&quot;&gt;SCHEMA&lt;/font&gt;" style="text;html=1;align=center;verticalAlign=middle;whiteSpace=wrap;rounded=0;" parent="1" vertex="1">
          <mxGeometry x="-60" y="1280" width="750" height="70" as="geometry" />
        </mxCell>
        <mxCell id="GeMPi5UEZmiX4pXkUo5c-13" value="&lt;div style=&quot;box-sizing: border-box; width: 100%; background: rgb(228, 228, 228); padding: 2px;&quot;&gt;Vehicle&lt;/div&gt;PK vehicle_number&lt;br&gt;&lt;span style=&quot;white-space: pre;&quot;&gt;&#x9;&lt;/span&gt;product_type&lt;br&gt;&lt;span style=&quot;white-space: pre;&quot;&gt;&#x9;&lt;/span&gt;price_per_day" style="verticalAlign=top;align=left;overflow=fill;html=1;whiteSpace=wrap;" parent="1" vertex="1">
          <mxGeometry x="80" y="1430" width="180" height="90" as="geometry" />
        </mxCell>
        <mxCell id="GeMPi5UEZmiX4pXkUo5c-14" value="&lt;div style=&quot;box-sizing: border-box; width: 100%; background: rgb(228, 228, 228); padding: 2px;&quot;&gt;Bike&lt;/div&gt;PK vehicle_number&lt;br&gt;&lt;span style=&quot;white-space: pre;&quot;&gt;&#x9;&lt;/span&gt;bike_type varchar(20)" style="verticalAlign=top;align=left;overflow=fill;html=1;whiteSpace=wrap;" parent="1" vertex="1">
          <mxGeometry x="-30" y="1630" width="180" height="80" as="geometry" />
        </mxCell>
        <mxCell id="GeMPi5UEZmiX4pXkUo5c-15" value="&lt;div style=&quot;box-sizing: border-box; width: 100%; background: rgb(228, 228, 228); padding: 2px;&quot;&gt;Scooter&lt;/div&gt;&lt;table style=&quot;width:100%;font-size:1em;&quot; cellpadding=&quot;2&quot; cellspacing=&quot;0&quot;&gt;&lt;tbody&gt;&lt;tr&gt;&lt;td&gt;PK&amp;nbsp;&lt;span style=&quot;white-space: pre;&quot;&gt;&#x9;&lt;/span&gt;vehicle_number&lt;br&gt;&lt;span style=&quot;white-space: pre;&quot;&gt;&#x9;&lt;/span&gt;scooter_type varchar(20)&lt;br&gt;&lt;/td&gt;&lt;td&gt;&lt;br&gt;&lt;/td&gt;&lt;/tr&gt;&lt;tr&gt;&lt;td&gt;&lt;br&gt;&lt;/td&gt;&lt;td&gt;&lt;br&gt;&lt;/td&gt;&lt;/tr&gt;&lt;/tbody&gt;&lt;/table&gt;" style="verticalAlign=top;align=left;overflow=fill;html=1;whiteSpace=wrap;" parent="1" vertex="1">
          <mxGeometry x="280" y="1620" width="180" height="120" as="geometry" />
        </mxCell>
        <mxCell id="GeMPi5UEZmiX4pXkUo5c-16" value="&lt;div style=&quot;box-sizing: border-box; width: 100%; background: rgb(228, 228, 228); padding: 2px;&quot;&gt;Booking&lt;/div&gt;&lt;table style=&quot;width:100%;font-size:1em;&quot; cellpadding=&quot;2&quot; cellspacing=&quot;0&quot;&gt;&lt;tbody&gt;&lt;tr&gt;&lt;td&gt;PK&lt;span style=&quot;white-space: pre;&quot;&gt;&#x9;&lt;/span&gt;booking_id&lt;br&gt;FK&lt;span style=&quot;white-space: pre;&quot;&gt;&#x9;&lt;/span&gt;vehicle_number&lt;br&gt;FK&lt;span style=&quot;white-space: pre;&quot;&gt;&#x9;&lt;/span&gt;user_number&lt;br&gt;&lt;span style=&quot;white-space: pre;&quot;&gt;&#x9;&lt;/span&gt;booked_at&lt;br&gt;&lt;span style=&quot;white-space: pre;&quot;&gt;&#x9;&lt;/span&gt;booked_from&lt;br&gt;&lt;span style=&quot;white-space: pre;&quot;&gt;&#x9;&lt;/span&gt;booked_to&lt;br&gt;&lt;span style=&quot;white-space: pre;&quot;&gt;&#x9;&lt;/span&gt;booking_status&lt;br&gt;&lt;span style=&quot;white-space: pre;&quot;&gt;&#x9;&lt;/span&gt;update_at&lt;br&gt;&lt;/td&gt;&lt;td&gt;&lt;/td&gt;&lt;/tr&gt;&lt;/tbody&gt;&lt;/table&gt;" style="verticalAlign=top;align=left;overflow=fill;html=1;whiteSpace=wrap;" parent="1" vertex="1">
          <mxGeometry x="960" y="1440" width="180" height="180" as="geometry" />
        </mxCell>
        <mxCell id="GeMPi5UEZmiX4pXkUo5c-21" value="Transaction" style="swimlane;fontStyle=1;align=center;verticalAlign=top;childLayout=stackLayout;horizontal=1;startSize=26;horizontalStack=0;resizeParent=1;resizeParentMax=0;resizeLast=0;collapsible=1;marginBottom=0;whiteSpace=wrap;html=1;" parent="1" vertex="1">
          <mxGeometry x="1040" y="1050" width="160" height="154" as="geometry" />
        </mxCell>
        <mxCell id="GeMPi5UEZmiX4pXkUo5c-22" value="- transactionId&lt;div&gt;- bookingId&lt;br&gt;- userId&lt;/div&gt;&lt;div&gt;- vehicleId&lt;/div&gt;" style="text;strokeColor=none;fillColor=none;align=left;verticalAlign=top;spacingLeft=4;spacingRight=4;overflow=hidden;rotatable=0;points=[[0,0.5],[1,0.5]];portConstraint=eastwest;whiteSpace=wrap;html=1;" parent="GeMPi5UEZmiX4pXkUo5c-21" vertex="1">
          <mxGeometry y="26" width="160" height="94" as="geometry" />
        </mxCell>
        <mxCell id="GeMPi5UEZmiX4pXkUo5c-23" value="" style="line;strokeWidth=1;fillColor=none;align=left;verticalAlign=middle;spacingTop=-1;spacingLeft=3;spacingRight=3;rotatable=0;labelPosition=right;points=[];portConstraint=eastwest;strokeColor=inherit;" parent="GeMPi5UEZmiX4pXkUo5c-21" vertex="1">
          <mxGeometry y="120" width="160" height="8" as="geometry" />
        </mxCell>
        <mxCell id="GeMPi5UEZmiX4pXkUo5c-24" value="+ Transaction()" style="text;strokeColor=none;fillColor=none;align=left;verticalAlign=top;spacingLeft=4;spacingRight=4;overflow=hidden;rotatable=0;points=[[0,0.5],[1,0.5]];portConstraint=eastwest;whiteSpace=wrap;html=1;" parent="GeMPi5UEZmiX4pXkUo5c-21" vertex="1">
          <mxGeometry y="128" width="160" height="26" as="geometry" />
        </mxCell>
        <mxCell id="GeMPi5UEZmiX4pXkUo5c-25" value="has-a" style="endArrow=diamondThin;endFill=0;endSize=24;html=1;rounded=0;entryX=0.005;entryY=-0.031;entryDx=0;entryDy=0;entryPerimeter=0;exitX=1.036;exitY=-0.111;exitDx=0;exitDy=0;exitPerimeter=0;" parent="1" target="GeMPi5UEZmiX4pXkUo5c-22" edge="1">
          <mxGeometry width="160" relative="1" as="geometry">
            <mxPoint x="945.7600000000002" y="1073.1139999999998" as="sourcePoint" />
            <mxPoint x="670" y="930" as="targetPoint" />
          </mxGeometry>
        </mxCell>
        <mxCell id="GeMPi5UEZmiX4pXkUo5c-27" value="UserTransactionService" style="swimlane;fontStyle=1;align=center;verticalAlign=top;childLayout=stackLayout;horizontal=1;startSize=26;horizontalStack=0;resizeParent=1;resizeParentMax=0;resizeLast=0;collapsible=1;marginBottom=0;whiteSpace=wrap;html=1;" parent="1" vertex="1">
          <mxGeometry x="790" y="1050" width="160" height="150" as="geometry" />
        </mxCell>
        <mxCell id="GeMPi5UEZmiX4pXkUo5c-28" value="- List&amp;lt;Transaction&amp;gt;" style="text;strokeColor=none;fillColor=none;align=left;verticalAlign=top;spacingLeft=4;spacingRight=4;overflow=hidden;rotatable=0;points=[[0,0.5],[1,0.5]];portConstraint=eastwest;whiteSpace=wrap;html=1;" parent="GeMPi5UEZmiX4pXkUo5c-27" vertex="1">
          <mxGeometry y="26" width="160" height="26" as="geometry" />
        </mxCell>
        <mxCell id="GeMPi5UEZmiX4pXkUo5c-29" value="" style="line;strokeWidth=1;fillColor=none;align=left;verticalAlign=middle;spacingTop=-1;spacingLeft=3;spacingRight=3;rotatable=0;labelPosition=right;points=[];portConstraint=eastwest;strokeColor=inherit;" parent="GeMPi5UEZmiX4pXkUo5c-27" vertex="1">
          <mxGeometry y="52" width="160" height="8" as="geometry" />
        </mxCell>
        <mxCell id="GeMPi5UEZmiX4pXkUo5c-30" value="+ addTrasaction()&lt;br&gt;+ getTransaction()" style="text;strokeColor=none;fillColor=none;align=left;verticalAlign=top;spacingLeft=4;spacingRight=4;overflow=hidden;rotatable=0;points=[[0,0.5],[1,0.5]];portConstraint=eastwest;whiteSpace=wrap;html=1;" parent="GeMPi5UEZmiX4pXkUo5c-27" vertex="1">
          <mxGeometry y="60" width="160" height="90" as="geometry" />
        </mxCell>
        <mxCell id="GeMPi5UEZmiX4pXkUo5c-31" value="" style="endArrow=diamondThin;endFill=0;endSize=24;html=1;rounded=0;exitX=1;exitY=0.5;exitDx=0;exitDy=0;entryX=0;entryY=0.5;entryDx=0;entryDy=0;" parent="1" source="hBEw3QQNNBVb0nGFm_RE-16" target="GeMPi5UEZmiX4pXkUo5c-28" edge="1">
          <mxGeometry width="160" relative="1" as="geometry">
            <mxPoint x="510" y="990" as="sourcePoint" />
            <mxPoint x="590" y="1081.111111111111" as="targetPoint" />
          </mxGeometry>
        </mxCell>
        <mxCell id="GeMPi5UEZmiX4pXkUo5c-32" value="has-a" style="edgeLabel;html=1;align=center;verticalAlign=middle;resizable=0;points=[];" parent="GeMPi5UEZmiX4pXkUo5c-31" vertex="1" connectable="0">
          <mxGeometry x="-0.3219" y="-3" relative="1" as="geometry">
            <mxPoint y="1" as="offset" />
          </mxGeometry>
        </mxCell>
        <mxCell id="GeMPi5UEZmiX4pXkUo5c-36" value="AvailableVehicleSummary" style="swimlane;fontStyle=1;align=center;verticalAlign=top;childLayout=stackLayout;horizontal=1;startSize=26;horizontalStack=0;resizeParent=1;resizeParentMax=0;resizeLast=0;collapsible=1;marginBottom=0;whiteSpace=wrap;html=1;" parent="1" vertex="1">
          <mxGeometry x="1010" y="370" width="160" height="134" as="geometry" />
        </mxCell>
        <mxCell id="GeMPi5UEZmiX4pXkUo5c-37" value="- HashMap&amp;lt;String, Map&amp;lt;String, Integer&amp;gt;&amp;gt; summary;" style="text;strokeColor=none;fillColor=none;align=left;verticalAlign=top;spacingLeft=4;spacingRight=4;overflow=hidden;rotatable=0;points=[[0,0.5],[1,0.5]];portConstraint=eastwest;whiteSpace=wrap;html=1;" parent="GeMPi5UEZmiX4pXkUo5c-36" vertex="1">
          <mxGeometry y="26" width="160" height="74" as="geometry" />
        </mxCell>
        <mxCell id="GeMPi5UEZmiX4pXkUo5c-38" value="" style="line;strokeWidth=1;fillColor=none;align=left;verticalAlign=middle;spacingTop=-1;spacingLeft=3;spacingRight=3;rotatable=0;labelPosition=right;points=[];portConstraint=eastwest;strokeColor=inherit;" parent="GeMPi5UEZmiX4pXkUo5c-36" vertex="1">
          <mxGeometry y="100" width="160" height="8" as="geometry" />
        </mxCell>
        <mxCell id="GeMPi5UEZmiX4pXkUo5c-39" value="+ method(type): type" style="text;strokeColor=none;fillColor=none;align=left;verticalAlign=top;spacingLeft=4;spacingRight=4;overflow=hidden;rotatable=0;points=[[0,0.5],[1,0.5]];portConstraint=eastwest;whiteSpace=wrap;html=1;" parent="GeMPi5UEZmiX4pXkUo5c-36" vertex="1">
          <mxGeometry y="108" width="160" height="26" as="geometry" />
        </mxCell>
      </root>
    </mxGraphModel>
  </diagram>
</mxfile>
